<svg width="48" height="47" viewBox="0 0 48 47" fill="none" xmlns="http://www.w3.org/2000/svg">
<path d="M16.0548 37.6839C16.0548 37.8774 15.8323 38.0323 15.5516 38.0323C15.2323 38.0613 15.0097 37.9065 15.0097 37.6839C15.0097 37.4903 15.2323 37.3355 15.5129 37.3355C15.8032 37.3065 16.0548 37.4613 16.0548 37.6839ZM13.0452 37.2484C12.9774 37.4419 13.171 37.6645 13.4613 37.7226C13.7129 37.8194 14.0032 37.7226 14.0613 37.529C14.1194 37.3355 13.9355 37.1129 13.6452 37.0258C13.3935 36.9581 13.1129 37.0548 13.0452 37.2484ZM17.3226 37.0839C17.0419 37.1516 16.8484 37.3355 16.8774 37.5581C16.9065 37.7516 17.1581 37.8774 17.4484 37.8097C17.729 37.7419 17.9226 37.5581 17.8935 37.3645C17.8645 37.1806 17.6032 37.0548 17.3226 37.0839ZM23.6903 0C10.2677 0 0 10.1903 0 23.6129C0 34.3452 6.75484 43.529 16.4032 46.7613C17.6419 46.9839 18.0774 46.2194 18.0774 45.5903C18.0774 44.9903 18.0484 41.6806 18.0484 39.6484C18.0484 39.6484 11.2742 41.1 9.85161 36.7645C9.85161 36.7645 8.74839 33.9484 7.16129 33.2226C7.16129 33.2226 4.94516 31.7032 7.31613 31.7323C7.31613 31.7323 9.72581 31.9258 11.0516 34.229C13.171 37.9645 16.7226 36.8903 18.1065 36.2516C18.329 34.7032 18.9581 33.629 19.6548 32.9903C14.2452 32.3903 8.7871 31.6065 8.7871 22.2968C8.7871 19.6355 9.52258 18.3 11.071 16.5968C10.8194 15.9677 9.99677 13.3742 11.3226 10.0258C13.3452 9.39677 18 12.6387 18 12.6387C19.9355 12.0968 22.0161 11.8161 24.0774 11.8161C26.1387 11.8161 28.2194 12.0968 30.1548 12.6387C30.1548 12.6387 34.8097 9.3871 36.8323 10.0258C38.1581 13.3839 37.3355 15.9677 37.0839 16.5968C38.6323 18.3097 39.5806 19.6452 39.5806 22.2968C39.5806 31.6355 33.8806 32.3806 28.471 32.9903C29.3613 33.7548 30.1161 35.2065 30.1161 37.4806C30.1161 40.7419 30.0871 44.7774 30.0871 45.571C30.0871 46.2 30.5323 46.9645 31.7613 46.7419C41.4387 43.529 48 34.3452 48 23.6129C48 10.1903 37.1129 0 23.6903 0ZM9.40645 33.3774C9.28064 33.4742 9.30968 33.6968 9.47419 33.8806C9.62903 34.0355 9.85161 34.1032 9.97742 33.9774C10.1032 33.8806 10.0742 33.6581 9.90968 33.4742C9.75484 33.3194 9.53226 33.2516 9.40645 33.3774ZM8.36129 32.5935C8.29355 32.7194 8.39032 32.8742 8.58387 32.971C8.73871 33.0677 8.93226 33.0387 9 32.9032C9.06774 32.7774 8.97097 32.6226 8.77742 32.5258C8.58387 32.4677 8.42903 32.4968 8.36129 32.5935ZM11.4968 36.0387C11.3419 36.1645 11.4 36.4548 11.6226 36.6387C11.8452 36.8613 12.1258 36.8903 12.2516 36.7355C12.3774 36.6097 12.3194 36.3194 12.1258 36.1355C11.9129 35.9129 11.6226 35.8839 11.4968 36.0387ZM10.3935 34.6161C10.2387 34.7129 10.2387 34.9645 10.3935 35.1871C10.5484 35.4097 10.8097 35.5065 10.9355 35.4097C11.0903 35.2839 11.0903 35.0323 10.9355 34.8097C10.8 34.5871 10.5484 34.4903 10.3935 34.6161Z" fill="black"/>
</svg>
