<svg width="64" height="64" viewBox="0 0 64 64" fill="none" xmlns="http://www.w3.org/2000/svg">
<path d="M0 2.56C0 1.14615 1.14615 0 2.56 0H16.64C18.0538 0 19.2 1.14615 19.2 2.56V61.44C19.2 62.8538 18.0538 64 16.64 64H2.56C1.14615 64 0 62.8538 0 61.44V2.56Z" fill="#660708"/>
<path d="M19.2 15.36C19.2 13.9462 20.3462 12.8 21.76 12.8H35.84C37.2538 12.8 38.4 13.9462 38.4 15.36V61.44C38.4 62.8538 37.2538 64 35.84 64H21.76C20.3462 64 19.2 62.8538 19.2 61.44V15.36Z" fill="#A4161A"/>
<path d="M51.2 37.76C51.2 36.3462 52.3461 35.2 53.76 35.2H61.44C62.8538 35.2 64 36.3462 64 37.76V61.44C64 62.8538 62.8538 64 61.44 64H53.76C52.3461 64 51.2 62.8538 51.2 61.44V37.76Z" fill="#E5383B"/>
<path d="M38.4 24.96C38.4 23.5462 39.5462 22.4 40.96 22.4H48.64C50.0538 22.4 51.2 23.5462 51.2 24.96V61.44C51.2 62.8538 50.0538 64 48.64 64H40.96C39.5462 64 38.4 62.8538 38.4 61.44V24.96Z" fill="#BA181B"/>
</svg>
